<?xml version="1.0" encoding="UTF-8"?>
<svg width="25px" height="24px" viewBox="0 0 25 24" version="1.1" xmlns="http://www.w3.org/2000/svg" xmlns:xlink="http://www.w3.org/1999/xlink">
    <!-- Generator: Sketch 61 (89581) - https://sketch.com -->
    <title>Combined Shape</title>
    <desc>Created with Sketch.</desc>
    <g id="Web" stroke="none" stroke-width="1" fill="none" fill-rule="evenodd">
        <g id="Blog" transform="translate(-1185.000000, -696.000000)" fill="#B0B3B7" fill-rule="nonzero">
            <path d="M1198.614,695.997672 C1201.31685,695.99952 1201.75264,696.015204 1202.94721,696.06994 C1204.22468,696.128013 1205.09706,696.330864 1205.8605,696.627329 C1206.66138,696.928747 1207.38686,697.401254 1207.98634,698.011893 C1208.59686,698.611362 1209.06927,699.336792 1209.37062,700.137595 C1209.66732,700.90098 1209.87017,701.773366 1209.92849,703.050836 C1209.9791,704.160082 1209.99623,704.615107 1209.9999,706.838471 L1209.9999,709.159567 C1209.99623,711.382896 1209.9791,711.8378 1209.92849,712.947211 C1209.87017,714.224633 1209.66732,715.097019 1209.37062,715.860451 C1208.74713,717.472533 1207.47272,718.74694 1205.86064,719.370432 C1205.09725,719.667134 1204.22487,719.869986 1202.9474,719.928298 C1201.79549,719.980864 1201.34909,719.997311 1198.89524,720.000075 L1197.10319,720.000075 C1194.64936,719.997311 1194.2031,719.980864 1193.05102,719.928298 C1191.7736,719.869986 1190.90122,719.667134 1190.13778,719.370432 C1189.33698,719.069081 1188.61155,718.596674 1188.01208,717.986153 C1187.40156,717.386681 1186.92916,716.661252 1186.6278,715.860451 C1186.3311,715.097066 1186.12825,714.224681 1186.06994,712.947211 C1186.0152,711.752638 1185.99952,711.316849 1185.99767,708.614006 L1185.99767,707.38404 C1185.99952,704.681198 1186.0152,704.245408 1186.06994,703.050836 C1186.12801,701.773366 1186.33086,700.90098 1186.62733,700.137548 C1186.92879,699.336711 1187.40133,698.611279 1188.01199,698.011846 C1188.61146,697.401328 1189.33689,696.928921 1190.13769,696.627567 C1190.90107,696.330864 1191.77346,696.128013 1193.05093,696.069701 C1194.2455,696.015188 1194.68129,695.999519 1197.38413,695.997672 Z M1195.08258,703 L1190,703 L1190,713 L1195.19766,712.991043 C1195.66276,712.991043 1196.12786,712.919391 1196.59297,712.811912 C1197.05807,712.704433 1197.48482,712.525302 1197.83484,712.305867 C1198.18487,712.090909 1198.49654,711.763995 1198.68833,711.401254 C1198.88492,711.038513 1199,710.60412 1199,710.098074 C1199,709.480072 1198.80341,708.9382 1198.49654,708.503807 C1198.18966,708.069413 1197.6862,707.742499 1197.02451,707.563368 C1197.49441,707.34841 1197.878,707.057322 1198.11295,706.730408 C1198.38625,706.403493 1198.50133,705.9691 1198.50133,705.463054 C1198.50133,705.028661 1198.41982,704.630094 1198.26638,704.30318 C1198.10815,703.976265 1197.878,703.721003 1197.56633,703.541872 C1197.25466,703.362741 1196.90464,703.214957 1196.47789,703.143305 C1196.05115,703.035826 1195.58604,703 1195.08258,703 L1195.08258,703 Z M1203.08566,705.766276 C1202.60002,705.766276 1202.20778,705.871663 1201.81553,706.040281 C1201.45317,706.208899 1201.1207,706.482904 1200.848,706.790632 C1200.57529,707.132084 1200.3661,707.50726 1200.21293,707.949883 C1200.05977,708.392506 1200,708.873068 1200,709.383138 C1200,709.931148 1200.06351,710.407494 1200.21293,710.850117 C1200.33621,711.29274 1200.54541,711.667916 1200.81811,711.975644 C1201.09082,712.317096 1201.3934,712.557377 1201.78565,712.725995 C1202.17789,712.898829 1202.60376,713 1203.08566,713 C1203.7805,713 1204.35579,712.797658 1204.83769,712.456206 C1205.31959,712.08103 1205.68195,711.499297 1205.92477,710.681499 L1205.92477,710.681499 L1204.44544,710.681499 C1204.38567,710.888056 1204.23625,711.090398 1203.99343,711.296956 C1203.75061,711.469789 1203.44802,711.57096 1203.11555,711.57096 C1202.63365,711.57096 1202.27129,711.436066 1202.02847,711.162061 C1201.78565,710.888056 1201.60634,710.377986 1201.60634,709.821546 L1201.60634,709.821546 L1205.98828,709.821546 C1206.01816,709.277752 1205.98828,708.79719 1205.92851,708.320843 C1205.80523,707.844496 1205.62592,707.401874 1205.3831,707.026698 C1205.14028,706.617799 1204.83769,706.348009 1204.44544,706.107728 C1204.0532,705.867447 1203.60118,705.766276 1203.08566,705.766276 Z M1194.92435,708.539633 C1195.42781,708.539633 1195.85456,708.647112 1196.16622,708.866547 C1196.47789,709.121809 1196.63133,709.48455 1196.63133,709.990596 C1196.63133,710.245858 1196.55461,710.465293 1196.47789,710.644425 C1196.36281,710.823556 1196.24294,710.931034 1196.0895,711.042991 C1195.93607,711.154948 1195.73948,711.226601 1195.54768,711.262427 C1195.35109,711.298253 1195.12094,711.33408 1194.88599,711.33408 L1194.88599,711.33408 L1194.88599,711.329601 L1192.36867,711.329601 L1192.36867,708.539633 Z M1202.99601,707.203747 C1203.38825,707.203747 1203.72073,707.338642 1203.93366,707.578923 C1204.14286,707.819204 1204.29602,708.160656 1204.35579,708.666511 L1204.35579,708.666511 L1201.63622,708.666511 C1201.63622,708.531616 1201.66611,708.392506 1201.69599,708.223888 C1201.72588,708.055269 1201.78938,707.882436 1201.90893,707.747541 C1202.02847,707.612646 1202.14801,707.473536 1202.33106,707.372365 C1202.5141,707.271194 1202.7233,707.203747 1202.99601,707.203747 Z M1192.36867,704.706225 L1194.78425,704.706785 C1194.94562,704.708464 1195.09217,704.715181 1195.23601,704.742051 C1195.42781,704.777877 1195.58604,704.84953 1195.73948,704.921182 C1195.89771,705.028661 1196.01279,705.140618 1196.0895,705.283923 C1196.16622,705.427228 1196.20458,705.642185 1196.20458,705.861621 C1196.20458,706.260188 1196.08471,706.582624 1195.8162,706.766234 C1195.54768,706.949843 1195.19766,707.057322 1194.77091,707.057322 C1194.77091,707.057322 1192.36867,707.057322 1192.36867,707.0618 L1192.36867,707.0618 L1192.36867,704.706225 Z M1204.65838,704 L1201.27386,704 L1201.27386,704.91897 L1204.65838,704.91897 L1204.65838,704 Z" id="Combined-Shape"></path>
        </g>
    </g>
</svg>