<?xml version="1.0" encoding="UTF-8"?>
<svg width="24px" height="24px" viewBox="0 0 24 24" version="1.1" xmlns="http://www.w3.org/2000/svg" xmlns:xlink="http://www.w3.org/1999/xlink">
    <!-- Generator: Sketch 61 (89581) - https://sketch.com -->
    <title>Group 2</title>
    <desc>Created with Sketch.</desc>
    <g id="Web" stroke="none" stroke-width="1" fill="none" fill-rule="evenodd">
        <g id="Blog" transform="translate(-1266.000000, -696.000000)" fill="#B0B3B7" fill-rule="nonzero">
            <g id="Group-2" transform="translate(1266.000000, 696.003762)">
                <path d="M12.6109492,0.000193373174 C15.3125966,0.00204106719 15.7481937,0.0177230515 16.9422381,0.0724514281 C18.2191429,0.130517366 19.0911429,0.333343257 19.8542381,0.629770106 C20.6547636,0.931149637 21.3799249,1.40359685 21.9791429,2.01415923 C22.5893933,2.61355215 23.0615917,3.33888998 23.3628095,4.13959166 C23.659381,4.90288008 23.8621429,5.77515526 23.9204286,7.05246298 C23.9749175,8.24688424 23.9905797,8.68266023 23.9924258,11.385127 L23.9924258,12.6149182 C23.9905797,15.3173637 23.9749175,15.7529856 23.9204286,16.9475847 C23.8621429,18.2248447 23.659381,19.0971199 23.3628095,19.860456 C22.7395937,21.4723332 21.4657496,22.7465793 19.854381,23.3699917 C19.0913333,23.6666567 18.2193333,23.8694826 16.9424286,23.9277867 C15.7910286,23.9803462 15.34483,23.9967914 12.892057,23.9995548 L11.1008053,23.9995548 C8.64806143,23.9967914 8.202,23.9803462 7.05042857,23.9277867 C5.77357143,23.8694826 4.90157143,23.6666567 4.13847619,23.3699917 C3.33802712,23.0686789 2.61291811,22.5963315 2.01371429,21.9858884 C1.40346738,21.3864926 0.931269525,20.6611556 0.630047619,19.860456 C0.33347619,19.0971676 0.130714286,18.2248924 0.0724285714,16.9475847 C0.0177174603,15.7531634 0.00204042328,15.3174289 0.000193312169,12.6149289 L0.000193312169,11.3851187 C0.00204042328,8.68261874 0.0177174603,8.24688424 0.0724285714,7.05246298 C0.13047619,5.77515526 0.333238095,4.90288008 0.629571429,4.13954402 C0.930903539,3.33880899 1.40323342,2.61346888 2.01361905,2.01411159 C2.61282482,1.40367092 3.33793327,0.931323868 4.13838095,0.630008276 C4.90142857,0.333343257 5.77342857,0.130517366 7.05033333,0.0722132578 C8.24437778,0.0177071735 8.67997481,0.00204000865 11.3816222,0.000193302605 Z M17.4456834,3.65758172 C14.6940232,3.65758172 12.8101622,5.33721107 12.8101622,8.42172072 L12.8101622,11.0796976 L9.69803861,11.0796976 L9.69803861,14.6838674 L12.8101622,14.6838674 L12.8101622,23.9320219 L16.5321081,23.9320219 L16.5321081,14.6838674 L19.6362625,14.6838674 L20.1010656,11.0796976 L16.5321081,11.0796976 L16.5321081,8.77866281 C16.5321081,7.73517246 16.8218687,7.02406821 18.3182085,7.02406821 L20.2267181,7.02323423 L20.2267181,3.79963578 C19.8966486,3.755713 18.7637375,3.65758172 17.4456834,3.65758172 Z" id="Combined-Shape"></path>
            </g>
        </g>
    </g>
</svg>