<?xml version="1.0" encoding="UTF-8"?>
<svg width="24px" height="24px" viewBox="0 0 24 24" version="1.1" xmlns="http://www.w3.org/2000/svg" xmlns:xlink="http://www.w3.org/1999/xlink">
    <!-- Generator: Sketch 61 (89581) - https://sketch.com -->
    <title>Combined Shape2</title>
    <desc>Created with Sketch.</desc>
    <g id="Web" stroke="none" stroke-width="1" fill="none" fill-rule="evenodd">
        <g id="Blog" transform="translate(-1226.000000, -696.000000)" fill="#B0B3B7" fill-rule="nonzero">
            <path d="M1242.94721,696.06994 C1244.22468,696.128013 1245.09706,696.330864 1245.8605,696.627329 C1246.66138,696.928747 1247.38686,697.401254 1247.98634,698.011893 C1248.59686,698.611362 1249.06927,699.336792 1249.37062,700.137595 C1249.66732,700.90098 1249.87017,701.773366 1249.92849,703.050836 C1249.98105,704.202745 1249.9975,704.649141 1250.00026,707.102999 L1250.00024,708.914475 C1249.99741,711.351238 1249.98091,711.798178 1249.92849,712.947211 C1249.87017,714.224633 1249.66732,715.097019 1249.37062,715.860451 C1248.74713,717.472533 1247.47272,718.74694 1245.86064,719.370432 C1245.09725,719.667134 1244.22487,719.869986 1242.9474,719.928298 C1241.88857,719.976616 1241.42585,719.994417 1239.45222,719.999125 L1236.83867,719.99971 C1234.61534,719.996043 1234.16043,719.978917 1233.05102,719.928298 C1231.7736,719.869986 1230.90122,719.667134 1230.13778,719.370432 C1229.33698,719.069081 1228.61155,718.596674 1228.01208,717.986153 C1227.40156,717.386681 1226.92916,716.661252 1226.6278,715.860451 C1226.3311,715.097066 1226.12825,714.224681 1226.06994,712.947211 C1226.01716,711.795302 1226.00069,711.348944 1225.99792,708.895059 L1225.99794,707.083554 C1226.00077,704.646736 1226.0173,704.199697 1226.06994,703.050836 C1226.12801,701.773366 1226.33086,700.90098 1226.62733,700.137548 C1226.92879,699.336711 1227.40133,698.611279 1228.01199,698.011846 C1228.61146,697.401328 1229.33689,696.928921 1230.13769,696.627567 C1230.90107,696.330864 1231.77346,696.128013 1233.05093,696.069701 C1234.20284,696.017135 1234.64919,696.000688 1237.10308,695.997924 L1238.91449,695.997947 C1241.35131,696.000778 1241.79835,696.017299 1242.94721,696.06994 Z M1237.99902,701.83606 C1234.59531,701.83606 1231.83606,704.595313 1231.83606,707.999023 C1231.83606,711.402734 1234.59531,714.161986 1237.99902,714.161986 C1241.40273,714.161986 1244.16198,711.402734 1244.16198,707.999023 C1244.16198,704.595313 1241.40273,701.83606 1237.99902,701.83606 Z M1237.99908,703.99854 C1240.20848,703.99854 1241.99955,705.789624 1241.99955,707.999023 C1241.99955,710.208437 1240.20843,711.999506 1237.99902,711.999506 C1235.78962,711.999506 1233.99859,710.208391 1233.99859,707.998992 C1233.99859,705.789592 1235.78968,703.99854 1237.99908,703.99854 Z M1244.40547,700.152411 C1243.61009,700.152411 1242.96531,700.797193 1242.96531,701.592572 C1242.96531,702.38795 1243.61009,703.032732 1244.40547,703.032732 C1245.20085,703.032732 1245.84563,702.38795 1245.84563,701.592572 C1245.84563,700.797193 1245.20085,700.152411 1244.40547,700.152411 Z" id="Combined-Shape2"></path>
        </g>
    </g>
</svg>