<?xml version="1.0" encoding="UTF-8"?>
<svg width="132px" height="10px" viewBox="0 0 264 20" version="1.1" xmlns="http://www.w3.org/2000/svg" xmlns:xlink="http://www.w3.org/1999/xlink">
    <!-- Generator: Sketch 61 (89581) - https://sketch.com -->
    <title>Datahive Blog</title>
    <desc>Created with Sketch.</desc>
    <g id="Blog" stroke="none" stroke-width="1" fill="none" fill-rule="evenodd">
        <g id="Main" transform="translate(-150.000000, -50.000000)" fill="#B0B3B7">
            <path d="M210,58 L210,70 L206,70 L206,58 L210,58 Z M194,58 L194,70 L190,70 L190,62 L178,62 L178,70 L174,70 L174,58 L194,58 Z M242,58 L242,70 L238,70 L238,62 L226,62 L226,70 L222,70 L222,58 L242,58 Z M250,50 L250,58 L262,58 L262,50 L266,50 L266,70 L262,70 L262,62 L250,62 L250,70 L246,70 L246,50 L250,50 Z M274,50 L274,70 L270,70 L270,50 L274,50 Z M322,58 L322,62 L306,62 L306,66 L322,66 L322,70 L302,70 L302,58 L322,58 Z M154,58 L154,66 L166,66 L166,70 L150,70 L150,58 L154,58 Z M282,50 L282,66 L294,66 L294,70 L278,70 L278,50 L282,50 Z M414,50 L414,54 L402,54 L402,66 L410,66 L410,62 L406,62 L406,58 L414,58 L414,70 L398,70 L398,50 L414,50 Z M394,50 L394,70 L378,70 L378,50 L394,50 Z M362,50 L362,66 L374,66 L374,70 L358,70 L358,50 L362,50 Z M354,62 L354,70 L342,69.999 L342,70 L338,70 L338,50 L354,50 L354,58 L350,58 L350,62 L342,62 L342,65.999 L350,65.999 L350,62 L354,62 Z M170,58 L170,66 L166,66 L166,58 L170,58 Z M298,50 L298,66 L294,66 L294,50 L298,50 Z M390,54 L382,54 L382,66 L390,66 L390,54 Z M350,54 L342,54 L342,58 L350,58 L350,54 Z M218,50 L218,54 L198,54 L198,50 L218,50 Z M194,50 L194,54 L174,54 L174,50 L194,50 Z M242,50 L242,54 L222,54 L222,50 L242,50 Z M322,50 L322,54 L302,54 L302,50 L322,50 Z M170,50 L170,54 L150,54 L150,50 L170,50 Z" id="Datahive-Blog"></path>
        </g>
    </g>
</svg>