<?xml version="1.0" encoding="UTF-8"?>
<svg width="24px" height="24px" viewBox="0 0 24 24" version="1.1" xmlns="http://www.w3.org/2000/svg" xmlns:xlink="http://www.w3.org/1999/xlink">
    <!-- Generator: Sketch 61 (89581) - https://sketch.com -->
    <title>Group 3</title>
    <desc>Created with Sketch.</desc>
    <g id="Group-3" stroke="none" stroke-width="1" fill="none" fill-rule="evenodd">
        <g transform="translate(1.000000, 1.000000)" fill="#B0B3B7" fill-rule="nonzero">
            <path d="M11,3.5 C11,4.32842712 10.3284271,5 9.5,5 L4,5 L4,5 C3.48716416,5 3.06449284,5.38604019 3.00672773,5.88337887 L3,6 L3,18 C3,18.5128358 3.38604019,18.9355072 3.88337887,18.9932723 L4,19 L16,19 C16.5128358,19 16.9355072,18.6139598 16.9932723,18.1166211 L17,18 L17,12.5 C17,11.6715729 17.6715729,11 18.5,11 C19.3284271,11 20,11.6715729 20,12.5 L20,18 L20,18 C20,20.209139 18.209139,22 16,22 L4,22 C1.790861,22 0,20.209139 0,18 L0,6 C0,3.790861 1.790861,2 4,2 L9.5,2 C10.3284271,2 11,2.67157288 11,3.5 Z" id="Path"></path>
            <rect id="Rectangle" x="14" y="0" width="8" height="3" rx="1.5"></rect>
            <path d="M12.4222634,7.53886828 L19.5388683,0.422263446 C20.1018862,-0.140754482 21.0147186,-0.140754482 21.5777366,0.422263446 C22.1407545,0.985281374 22.1407545,1.89811379 21.5777366,2.46113172 L14.4611317,9.57773655 C13.8981138,10.1407545 12.9852814,10.1407545 12.4222634,9.57773655 C11.8592455,9.01471863 11.8592455,8.10188621 12.4222634,7.53886828 Z" id="Rectangle-Copy-2"></path>
            <rect id="Rectangle-Copy" x="19" y="0" width="3" height="8" rx="1.5"></rect>
        </g>
    </g>
</svg>