<?xml version="1.0" encoding="UTF-8"?>
<svg width="100px" height="24px" viewBox="0 0 100 24" version="1.1" xmlns="http://www.w3.org/2000/svg" xmlns:xlink="http://www.w3.org/1999/xlink">
    <!-- Generator: Sketch 61 (89581) - https://sketch.com -->
    <title>UXlabs</title>
    <desc>Created with Sketch.</desc>
    <g id="Web" stroke="none" stroke-width="1" fill="none" fill-rule="evenodd">
        <g id="Blog" transform="translate(-207.000000, -86.000000)" fill="#000000" fill-rule="nonzero">
            <path d="M215.792,109.192 C217.306667,109.192 218.666667,108.877333 219.872,108.248 C221.077318,107.618667 222.026651,106.733333 222.72,105.592 C223.413334,104.450667 223.76,103.154667 223.76,101.704 L223.76,86.92 L219.536,86.92 L219.536,101.576 C219.536,102.834667 219.2,103.810667 218.528,104.504 C217.856,105.197333 216.944,105.544 215.792,105.544 C214.64,105.544 213.733333,105.197333 213.072,104.504 C212.410667,103.810667 212.08,102.834667 212.08,101.576 L212.08,86.92 L207.888,86.92 L207.888,101.704 C207.888,103.154667 208.229333,104.450667 208.912,105.592 C209.594667,106.733333 210.538667,107.618667 211.744,108.248 C212.949333,108.877333 214.298667,109.192 215.792,109.192 Z M230.544,109 L235.056,100.84 L239.504,109 L244.496,109 L237.52,97.352 L243.76,86.92 L238.992,86.92 L235.152,94.088 L231.248,86.92 L226.288,86.92 L232.656,97.512 L225.776,109 L230.544,109 Z M259.888,109 L259.888,107.016 L258.576,107.016 C257.850667,107.016 257.328,106.824 257.008,106.44 C256.688,106.056 256.528,105.448 256.528,104.616 L256.528,86.92 L254.352,86.92 L254.352,104.744 C254.352,106.130667 254.693333,107.186667 255.376,107.912 C256.058667,108.637333 257.050667,109 258.352,109 L259.888,109 Z M267.568,109.192 C268.613333,109.192 269.498667,109.037333 270.224,108.728 C270.949333,108.418667 271.557333,107.933333 272.048,107.272 L272.048,109 L274.192,109 L274.192,97.96 C274.192,96.189333 273.685333,94.845333 272.672,93.928 C271.658667,93.010667 270.202667,92.552 268.304,92.552 C266.554667,92.552 265.178667,92.968 264.176,93.8 C263.173333,94.632 262.672,95.741333 262.672,97.128 L262.672,97.288 L264.784,97.288 L264.784,97.192 C264.784,96.317333 265.098667,95.629333 265.728,95.128 C266.357333,94.626667 267.226667,94.376 268.336,94.376 C269.509333,94.376 270.416,94.674667 271.056,95.272 C271.696,95.869333 272.016,96.754667 272.016,97.928 L272.016,99.784 L267.632,99.784 C265.904,99.784 264.565333,100.194667 263.616,101.016 C262.666667,101.837333 262.192,102.973333 262.192,104.424 C262.192,105.981333 262.661333,107.165333 263.6,107.976 C264.538667,108.786667 265.861333,109.192 267.568,109.192 Z M267.92,107.432 C265.552,107.432 264.368,106.418667 264.368,104.392 C264.368,102.386667 265.562667,101.384 267.952,101.384 L272.016,101.384 L272.016,103.496 C272.016,104.818667 271.690667,105.805333 271.04,106.456 C270.389333,107.106666 269.349333,107.432 267.92,107.432 Z M285.552,109.192 C287.152,109.192 288.464,108.653333 289.488,107.576 C290.512,106.498667 291.024,104.818667 291.024,102.536 L291.024,99.208 C291.024,96.925333 290.501333,95.245333 289.456,94.168 C288.410667,93.090667 287.056,92.552 285.392,92.552 C284.453333,92.552 283.626667,92.765333 282.912,93.192 C282.197333,93.6186377 281.616,94.2373047 281.168,95.048 L281.168,86.92 L278.992,86.92 L278.992,109 L281.168,109 L281.168,106.856 C282.064,108.413333 283.525333,109.192 285.552,109.192 Z M285.232,107.24 C283.909333,107.24 282.901333,106.786667 282.208,105.88 C281.514667,104.973333 281.168,103.805333 281.168,102.376 L281.168,99.528 C281.168,98.013333 281.498667,96.802667 282.16,95.896 C282.821333,94.989333 283.802667,94.536 285.104,94.536 C287.6,94.536 288.848,96.136 288.848,99.336 L288.848,102.408 C288.848,105.629333 287.642667,107.24 285.232,107.24 Z M300.272,109.192 C302.128,109.192 303.610667,108.770667 304.72,107.928 C305.829333,107.085333 306.384,105.896 306.384,104.36 C306.384,103.08 306.005333,102.104 305.248,101.432 C304.490667,100.76 303.312,100.274667 301.712,99.976 L299.6,99.592 C298.618667,99.421333 297.904,99.138667 297.456,98.744 C297.008,98.349333 296.784,97.8 296.784,97.096 C296.784,96.242667 297.098667,95.570667 297.728,95.08 C298.357333,94.589333 299.237333,94.344 300.368,94.344 C301.52,94.344 302.426667,94.589333 303.088,95.08 C303.749333,95.570667 304.08,96.242667 304.08,97.096 L304.08,97.192 L306.192,97.192 L306.192,97 C306.192,95.677333 305.658667,94.605333 304.592,93.784 C303.525333,92.962667 302.096,92.552 300.304,92.552 C298.64,92.552 297.285333,92.973333 296.24,93.816 C295.194667,94.658667 294.672001,95.784 294.672,97.192 C294.671999,98.450667 295.034666,99.410667 295.76,100.072 C296.485333,100.733333 297.637333,101.202667 299.216,101.48 L301.232,101.832 C302.298667,102.024 303.072,102.312 303.552,102.696 C304.032,103.08 304.272,103.677333 304.272,104.488 C304.272,105.405333 303.925333,106.109333 303.232,106.6 C302.538667,107.090667 301.584,107.336 300.368,107.336 C299.194669,107.336 298.261336,107.074667 297.568,106.552 C296.874667,106.029333 296.528,105.32 296.528,104.424 L296.528,104.328 L294.416,104.328 L294.416,104.456 C294.416,105.906667 294.949333,107.058667 296.016,107.912 C297.082665,108.765333 298.501331,109.192 300.272,109.192 Z" id="UXlabs"></path>
        </g>
    </g>
</svg>